<svg width="124" height="56" viewBox="0 0 124 56" fill="none" xmlns="http://www.w3.org/2000/svg">
<rect width="124" height="56" fill="#F5F5F5"/>
<g filter="url(#filter0_d_0_1)">
<rect x="2" y="1" width="120" height="52" rx="8" fill="black" shape-rendering="crispEdges"/>
<path d="M48.76 18.696H50.512V31.944H48.76V18.696ZM54.184 16.296H55.96V35.52C55.96 36.144 55.872 36.608 55.696 36.912C55.536 37.216 55.264 37.448 54.88 37.608C54.48 37.752 53.928 37.84 53.224 37.872C52.536 37.92 51.64 37.944 50.536 37.944C50.504 37.768 50.448 37.568 50.368 37.344C50.304 37.136 50.224 36.92 50.128 36.696C50.048 36.472 49.96 36.28 49.864 36.12C50.728 36.136 51.496 36.144 52.168 36.144C52.856 36.144 53.312 36.144 53.536 36.144C53.76 36.128 53.92 36.08 54.016 36C54.128 35.904 54.184 35.744 54.184 35.52V16.296ZM36.784 30.576H45.76V32.136H36.784V30.576ZM36.784 26.568H45.76V28.128H36.784V26.568ZM40.168 15.816H41.968V23.616H40.168V15.816ZM44.416 22.464H46.144V35.64C46.144 36.12 46.08 36.496 45.952 36.768C45.84 37.04 45.616 37.256 45.28 37.416C44.944 37.56 44.496 37.64 43.936 37.656C43.376 37.688 42.64 37.704 41.728 37.704C41.696 37.464 41.632 37.184 41.536 36.864C41.44 36.544 41.336 36.272 41.224 36.048C41.832 36.064 42.392 36.072 42.904 36.072C43.432 36.072 43.784 36.072 43.96 36.072C44.12 36.056 44.232 36.016 44.296 35.952C44.376 35.888 44.416 35.776 44.416 35.616V22.464ZM35.416 17.304L36.904 16.776C37.16 17.24 37.4 17.752 37.624 18.312C37.864 18.856 38.08 19.392 38.272 19.92C38.48 20.448 38.632 20.92 38.728 21.336L37.144 21.96C37.048 21.544 36.904 21.064 36.712 20.52C36.536 19.976 36.336 19.424 36.112 18.864C35.888 18.304 35.656 17.784 35.416 17.304ZM45.424 16.56L47.248 17.04C46.896 17.888 46.52 18.752 46.12 19.632C45.72 20.512 45.344 21.264 44.992 21.888L43.48 21.432C43.72 21 43.96 20.504 44.2 19.944C44.44 19.368 44.664 18.784 44.872 18.192C45.096 17.6 45.28 17.056 45.424 16.56ZM36.112 22.464H45.328V24.168H37.84V37.8H36.112V22.464ZM68.944 22.848H78.256V24.384H68.944V22.848ZM67.336 27.384H80.128V28.944H67.336V27.384ZM73.48 17.544C73.032 18.296 72.456 19.08 71.752 19.896C71.048 20.696 70.272 21.472 69.424 22.224C68.592 22.96 67.712 23.616 66.784 24.192C66.688 23.968 66.552 23.72 66.376 23.448C66.2 23.176 66.032 22.952 65.872 22.776C66.784 22.232 67.672 21.584 68.536 20.832C69.4 20.064 70.184 19.256 70.888 18.408C71.592 17.544 72.16 16.704 72.592 15.888H74.224C74.816 16.768 75.496 17.632 76.264 18.48C77.048 19.328 77.872 20.104 78.736 20.808C79.616 21.512 80.48 22.096 81.328 22.56C81.168 22.768 80.992 23.016 80.8 23.304C80.608 23.576 80.448 23.832 80.32 24.072C79.504 23.544 78.664 22.92 77.8 22.2C76.936 21.48 76.128 20.72 75.376 19.92C74.64 19.104 74.008 18.312 73.48 17.544ZM72.664 23.592H74.392V35.88C74.392 36.344 74.328 36.712 74.2 36.984C74.088 37.256 73.872 37.464 73.552 37.608C73.248 37.752 72.84 37.84 72.328 37.872C71.816 37.904 71.184 37.92 70.432 37.92C70.4 37.696 70.32 37.416 70.192 37.08C70.08 36.76 69.96 36.48 69.832 36.24C70.392 36.256 70.896 36.264 71.344 36.264C71.808 36.264 72.12 36.264 72.28 36.264C72.44 36.248 72.544 36.216 72.592 36.168C72.64 36.12 72.664 36.016 72.664 35.856V23.592ZM68.92 30.24L70.504 30.624C70.12 31.712 69.608 32.776 68.968 33.816C68.344 34.84 67.688 35.704 67 36.408C66.904 36.312 66.776 36.2 66.616 36.072C66.472 35.944 66.312 35.816 66.136 35.688C65.976 35.544 65.832 35.432 65.704 35.352C66.376 34.712 66.992 33.944 67.552 33.048C68.112 32.136 68.568 31.2 68.92 30.24ZM76.144 30.864L77.512 30.192C77.96 30.736 78.4 31.336 78.832 31.992C79.264 32.632 79.664 33.256 80.032 33.864C80.4 34.472 80.688 35.024 80.896 35.52L79.408 36.288C79.216 35.808 78.936 35.256 78.568 34.632C78.216 33.992 77.832 33.344 77.416 32.688C77 32.032 76.576 31.424 76.144 30.864ZM59.944 16.872H65.584V18.504H61.552V37.92H59.944V16.872ZM65.056 16.872H65.368L65.632 16.8L66.808 17.496C66.568 18.152 66.312 18.856 66.04 19.608C65.784 20.344 65.512 21.08 65.224 21.816C64.952 22.536 64.68 23.216 64.408 23.856C65.288 24.848 65.864 25.776 66.136 26.64C66.424 27.488 66.568 28.288 66.568 29.04C66.568 29.68 66.488 30.24 66.328 30.72C66.184 31.2 65.944 31.56 65.608 31.8C65.448 31.912 65.256 32.008 65.032 32.088C64.824 32.152 64.6 32.2 64.36 32.232C63.864 32.28 63.328 32.296 62.752 32.28C62.736 32.056 62.688 31.792 62.608 31.488C62.544 31.184 62.44 30.92 62.296 30.696C62.568 30.712 62.824 30.72 63.064 30.72C63.304 30.72 63.512 30.72 63.688 30.72C64.008 30.704 64.264 30.632 64.456 30.504C64.648 30.36 64.776 30.144 64.84 29.856C64.92 29.552 64.96 29.224 64.96 28.872C64.96 28.2 64.808 27.472 64.504 26.688C64.216 25.888 63.64 25.016 62.776 24.072C63 23.528 63.216 22.952 63.424 22.344C63.648 21.72 63.856 21.112 64.048 20.52C64.256 19.912 64.44 19.336 64.6 18.792C64.776 18.248 64.928 17.776 65.056 17.376V16.872Z" fill="white"/>
</g>
<defs>
<filter id="filter0_d_0_1" x="0" y="0" width="124" height="56" filterUnits="userSpaceOnUse" color-interpolation-filters="sRGB">
<feFlood flood-opacity="0" result="BackgroundImageFix"/>
<feColorMatrix in="SourceAlpha" type="matrix" values="0 0 0 0 0 0 0 0 0 0 0 0 0 0 0 0 0 0 127 0" result="hardAlpha"/>
<feOffset dy="1"/>
<feGaussianBlur stdDeviation="1"/>
<feComposite in2="hardAlpha" operator="out"/>
<feColorMatrix type="matrix" values="0 0 0 0 0 0 0 0 0 0 0 0 0 0 0 0 0 0 0.05 0"/>
<feBlend mode="normal" in2="BackgroundImageFix" result="effect1_dropShadow_0_1"/>
<feBlend mode="normal" in="SourceGraphic" in2="effect1_dropShadow_0_1" result="shape"/>
</filter>
</defs>
</svg>
