<svg width="127" height="60" viewBox="0 0 127 60" fill="none" xmlns="http://www.w3.org/2000/svg">
<rect width="127" height="60" fill="#F5F5F5"/>
<circle cx="0.5" cy="29.5" r="0.5" fill="#D9D9D9"/>
<g filter="url(#filter0_d_0_1)">
<rect x="11" y="1" width="114" height="56" rx="8" fill="black" shape-rendering="crispEdges"/>
<path d="M44.248 22.976H51.928V24.68H44.248V22.976ZM47.632 17.84H49.312V39.896H47.632V17.84ZM47.608 24.056L48.712 24.416C48.536 25.376 48.304 26.368 48.016 27.392C47.744 28.416 47.424 29.424 47.056 30.416C46.688 31.408 46.304 32.336 45.904 33.2C45.504 34.048 45.088 34.768 44.656 35.36C44.56 35.136 44.416 34.872 44.224 34.568C44.032 34.264 43.864 34.008 43.72 33.8C44.12 33.256 44.512 32.608 44.896 31.856C45.296 31.104 45.664 30.288 46 29.408C46.352 28.528 46.664 27.632 46.936 26.72C47.208 25.808 47.432 24.92 47.608 24.056ZM49.192 26.36C49.336 26.52 49.552 26.8 49.84 27.2C50.128 27.584 50.432 28.008 50.752 28.472C51.088 28.936 51.392 29.376 51.664 29.792C51.936 30.192 52.128 30.472 52.24 30.632L51.232 32.048C51.104 31.76 50.912 31.392 50.656 30.944C50.416 30.48 50.152 30 49.864 29.504C49.576 29.008 49.296 28.552 49.024 28.136C48.768 27.704 48.568 27.368 48.424 27.128L49.192 26.36ZM54.28 23.504H63.448V25.04H54.28V23.504ZM58.816 19.472C58.368 20.144 57.8 20.832 57.112 21.536C56.424 22.224 55.664 22.888 54.832 23.528C54.016 24.152 53.16 24.696 52.264 25.16C52.184 24.936 52.048 24.68 51.856 24.392C51.68 24.104 51.52 23.864 51.376 23.672C52.272 23.256 53.136 22.736 53.968 22.112C54.8 21.472 55.552 20.792 56.224 20.072C56.912 19.336 57.472 18.608 57.904 17.888H59.56C60.136 18.672 60.8 19.432 61.552 20.168C62.32 20.888 63.128 21.536 63.976 22.112C64.824 22.688 65.664 23.16 66.496 23.528C66.32 23.736 66.144 23.992 65.968 24.296C65.792 24.584 65.648 24.848 65.536 25.088C64.72 24.672 63.888 24.16 63.04 23.552C62.192 22.944 61.4 22.288 60.664 21.584C59.944 20.88 59.328 20.176 58.816 19.472ZM54.328 28.712V32H63.328V28.712H54.328ZM52.72 27.272H64.984V33.464H52.72V27.272ZM57.928 24.44H59.584V30.8C59.584 31.648 59.488 32.512 59.296 33.392C59.12 34.256 58.768 35.096 58.24 35.912C57.712 36.712 56.952 37.464 55.96 38.168C54.968 38.872 53.672 39.496 52.072 40.04C52.024 39.896 51.936 39.736 51.808 39.56C51.696 39.4 51.568 39.232 51.424 39.056C51.296 38.896 51.176 38.768 51.064 38.672C52.584 38.192 53.8 37.648 54.712 37.04C55.64 36.432 56.328 35.784 56.776 35.096C57.24 34.408 57.544 33.696 57.688 32.96C57.848 32.224 57.928 31.488 57.928 30.752V24.44ZM59.824 32.552C60.304 33.736 60.848 34.704 61.456 35.456C62.064 36.208 62.776 36.816 63.592 37.28C64.408 37.744 65.328 38.152 66.352 38.504C66.128 38.696 65.912 38.928 65.704 39.2C65.512 39.488 65.368 39.768 65.272 40.04C64.168 39.608 63.176 39.104 62.296 38.528C61.432 37.952 60.672 37.216 60.016 36.32C59.36 35.408 58.784 34.256 58.288 32.864L59.824 32.552ZM78.064 33.296H79.84V39.968H78.064V33.296ZM78.04 17.816H79.84V24.56H78.04V17.816ZM77.176 24.992L78.832 25.784C78.144 26.44 77.4 27.096 76.6 27.752C75.8 28.408 75.048 28.968 74.344 29.432L73.024 28.712C73.488 28.376 73.976 27.992 74.488 27.56C75 27.128 75.496 26.688 75.976 26.24C76.456 25.776 76.856 25.36 77.176 24.992ZM82.336 26.528L83.992 27.416C83.08 28.152 82.088 28.912 81.016 29.696C79.944 30.464 78.856 31.208 77.752 31.928C76.664 32.632 75.632 33.264 74.656 33.824L73.384 32.936C74.104 32.52 74.864 32.056 75.664 31.544C76.48 31.016 77.296 30.464 78.112 29.888C78.928 29.312 79.696 28.736 80.416 28.16C81.136 27.584 81.776 27.04 82.336 26.528ZM71.2 28.64L72.4 27.608C72.992 27.896 73.616 28.232 74.272 28.616C74.944 29 75.576 29.384 76.168 29.768C76.776 30.152 77.272 30.512 77.656 30.848L76.384 32.024C76.032 31.688 75.56 31.32 74.968 30.92C74.392 30.504 73.768 30.096 73.096 29.696C72.44 29.296 71.808 28.944 71.2 28.64ZM82.096 30.512L83.296 29.576C84 29.976 84.736 30.44 85.504 30.968C86.288 31.48 87.024 32 87.712 32.528C88.4 33.04 88.96 33.504 89.392 33.92L88.144 35.024C87.712 34.592 87.16 34.112 86.488 33.584C85.816 33.04 85.096 32.504 84.328 31.976C83.56 31.432 82.816 30.944 82.096 30.512ZM82.144 35.648L83.536 34.712C84.224 35.048 84.944 35.44 85.696 35.888C86.464 36.32 87.192 36.768 87.88 37.232C88.568 37.696 89.136 38.128 89.584 38.528L88.096 39.608C87.696 39.208 87.16 38.768 86.488 38.288C85.832 37.824 85.12 37.36 84.352 36.896C83.584 36.432 82.848 36.016 82.144 35.648ZM68.584 32.552C69.672 32.552 70.92 32.552 72.328 32.552C73.752 32.536 75.272 32.52 76.888 32.504C78.504 32.472 80.176 32.448 81.904 32.432C83.632 32.4 85.352 32.368 87.064 32.336L86.968 33.752C84.744 33.816 82.512 33.88 80.272 33.944C78.048 34.008 75.936 34.064 73.936 34.112C71.952 34.16 70.2 34.2 68.68 34.232L68.584 32.552ZM73.96 34.688L75.664 35.336C75.12 35.88 74.496 36.424 73.792 36.968C73.104 37.496 72.384 37.984 71.632 38.432C70.896 38.896 70.184 39.304 69.496 39.656C69.4 39.544 69.264 39.408 69.088 39.248C68.912 39.088 68.736 38.928 68.56 38.768C68.384 38.624 68.216 38.504 68.056 38.408C69.128 37.96 70.2 37.408 71.272 36.752C72.344 36.096 73.24 35.408 73.96 34.688ZM68.824 19.952H89.128V21.536H68.824V19.952ZM68.776 23.84H89.32V28.376H87.568V25.424H70.48V28.376H68.776V23.84Z" fill="white"/>
</g>
<defs>
<filter id="filter0_d_0_1" x="9" y="0" width="118" height="60" filterUnits="userSpaceOnUse" color-interpolation-filters="sRGB">
<feFlood flood-opacity="0" result="BackgroundImageFix"/>
<feColorMatrix in="SourceAlpha" type="matrix" values="0 0 0 0 0 0 0 0 0 0 0 0 0 0 0 0 0 0 127 0" result="hardAlpha"/>
<feOffset dy="1"/>
<feGaussianBlur stdDeviation="1"/>
<feComposite in2="hardAlpha" operator="out"/>
<feColorMatrix type="matrix" values="0 0 0 0 0 0 0 0 0 0 0 0 0 0 0 0 0 0 0.05 0"/>
<feBlend mode="normal" in2="BackgroundImageFix" result="effect1_dropShadow_0_1"/>
<feBlend mode="normal" in="SourceGraphic" in2="effect1_dropShadow_0_1" result="shape"/>
</filter>
</defs>
</svg>
